# MagicaVoxel @ Ephtracy

# material
mtllib axe.mtl
usemtl palette

# normals
vn -1 0 0
vn 1 0 0
vn 0 0 1
vn 0 0 -1
vn 0 -1 0
vn 0 1 0

# texcoords
vt 0.0292969 0.5
vt 0.962891 0.5
vt 0.966797 0.5
vt 0.978516 0.5

# verts
v -11 19 -10
v -11 19 -19
v -11 22 -10
v -11 22 -19
v -7 19 30
v -7 19 -10
v -7 19 -19
v -7 19 -21
v -7 22 30
v -7 22 -10
v -7 22 -19
v -7 22 -21
v 1 19 -9
v 1 19 -10
v 1 19 -19
v 1 19 -20
v 1 22 -9
v 1 22 -10
v 1 22 -19
v 1 22 -20
v 4 19 -8
v 4 19 -9
v 4 19 -20
v 4 19 -21
v 4 22 -8
v 4 22 -9
v 4 22 -20
v 4 22 -21
v 6 19 -7
v 6 19 -8
v 6 19 -21
v 6 19 -22
v 6 22 -7
v 6 22 -8
v 6 22 -21
v 6 22 -22
v 8 19 -6
v 8 19 -7
v 8 19 -22
v 8 19 -23
v 8 22 -6
v 8 22 -7
v 8 22 -22
v 8 22 -23
v 9 19 -5
v 9 19 -6
v 9 19 -23
v 9 19 -24
v 9 22 -5
v 9 22 -6
v 9 22 -23
v 9 22 -24
v 10 19 -4
v 10 19 -5
v 10 19 -24
v 10 19 -25
v 10 22 -4
v 10 22 -5
v 10 22 -24
v 10 22 -25
v 11 19 -2
v 11 19 -4
v 11 19 -25
v 11 19 -27
v 11 22 -2
v 11 22 -4
v 11 22 -25
v 11 22 -27
v 12 19 -1
v 12 19 -2
v 12 19 -27
v 12 19 -28
v 12 22 -1
v 12 22 -2
v 12 22 -27
v 12 22 -28
v -4 19 30
v -4 19 -10
v -4 19 -19
v -4 19 -21
v -4 22 30
v -4 22 -10
v -4 22 -19
v -4 22 -21
v 13 19 -1
v 13 19 -4
v 13 19 -25
v 13 19 -28
v 13 20 -2
v 13 20 -4
v 13 20 -25
v 13 20 -27
v 13 21 -2
v 13 21 -4
v 13 21 -25
v 13 21 -27
v 13 22 -1
v 13 22 -4
v 13 22 -25
v 13 22 -28
v 14 19 -4
v 14 19 -5
v 14 19 -24
v 14 19 -25
v 14 20 -2
v 14 20 -4
v 14 20 -5
v 14 20 -24
v 14 20 -25
v 14 20 -27
v 14 21 -2
v 14 21 -4
v 14 21 -5
v 14 21 -24
v 14 21 -25
v 14 21 -27
v 14 22 -4
v 14 22 -5
v 14 22 -24
v 14 22 -25
v 15 19 -5
v 15 19 -7
v 15 19 -22
v 15 19 -24
v 15 20 -4
v 15 20 -5
v 15 20 -7
v 15 20 -22
v 15 20 -24
v 15 20 -25
v 15 21 -4
v 15 21 -5
v 15 21 -7
v 15 21 -22
v 15 21 -24
v 15 21 -25
v 15 22 -5
v 15 22 -7
v 15 22 -22
v 15 22 -24
v 16 19 -7
v 16 19 -9
v 16 19 -20
v 16 19 -22
v 16 20 -5
v 16 20 -7
v 16 20 -9
v 16 20 -20
v 16 20 -22
v 16 20 -24
v 16 21 -5
v 16 21 -7
v 16 21 -9
v 16 21 -20
v 16 21 -22
v 16 21 -24
v 16 22 -7
v 16 22 -9
v 16 22 -20
v 16 22 -22
v 17 19 -9
v 17 19 -20
v 17 20 -7
v 17 20 -9
v 17 20 -20
v 17 20 -22
v 17 21 -7
v 17 21 -9
v 17 21 -20
v 17 21 -22
v 17 22 -9
v 17 22 -20
v 18 20 -9
v 18 20 -20
v 18 21 -9
v 18 21 -20
v -7 19 30
v -7 22 30
v -4 19 30
v -4 22 30
v 12 19 -1
v 12 22 -1
v 13 19 -1
v 13 22 -1
v 11 19 -2
v 11 22 -2
v 12 19 -2
v 12 22 -2
v 13 20 -2
v 13 21 -2
v 14 20 -2
v 14 21 -2
v 10 19 -4
v 10 22 -4
v 11 19 -4
v 11 22 -4
v 13 19 -4
v 13 20 -4
v 13 21 -4
v 13 22 -4
v 14 19 -4
v 14 20 -4
v 14 21 -4
v 14 22 -4
v 15 20 -4
v 15 21 -4
v 9 19 -5
v 9 22 -5
v 10 19 -5
v 10 22 -5
v 14 19 -5
v 14 20 -5
v 14 21 -5
v 14 22 -5
v 15 19 -5
v 15 20 -5
v 15 21 -5
v 15 22 -5
v 16 20 -5
v 16 21 -5
v 8 19 -6
v 8 22 -6
v 9 19 -6
v 9 22 -6
v 6 19 -7
v 6 22 -7
v 8 19 -7
v 8 22 -7
v 15 19 -7
v 15 20 -7
v 15 21 -7
v 15 22 -7
v 16 19 -7
v 16 20 -7
v 16 21 -7
v 16 22 -7
v 17 20 -7
v 17 21 -7
v 4 19 -8
v 4 22 -8
v 6 19 -8
v 6 22 -8
v 1 19 -9
v 1 22 -9
v 4 19 -9
v 4 22 -9
v 16 19 -9
v 16 20 -9
v 16 21 -9
v 16 22 -9
v 17 19 -9
v 17 20 -9
v 17 21 -9
v 17 22 -9
v 18 20 -9
v 18 21 -9
v -11 19 -10
v -11 22 -10
v -7 19 -10
v -7 22 -10
v -4 19 -10
v -4 22 -10
v 1 19 -10
v 1 22 -10
v -11 19 -19
v -11 22 -19
v -7 19 -19
v -7 22 -19
v -4 19 -19
v -4 22 -19
v 1 19 -19
v 1 22 -19
v 1 19 -20
v 1 22 -20
v 4 19 -20
v 4 22 -20
v 16 19 -20
v 16 20 -20
v 16 21 -20
v 16 22 -20
v 17 19 -20
v 17 20 -20
v 17 21 -20
v 17 22 -20
v 18 20 -20
v 18 21 -20
v -7 19 -21
v -7 22 -21
v -4 19 -21
v -4 22 -21
v 4 19 -21
v 4 22 -21
v 6 19 -21
v 6 22 -21
v 6 19 -22
v 6 22 -22
v 8 19 -22
v 8 22 -22
v 15 19 -22
v 15 20 -22
v 15 21 -22
v 15 22 -22
v 16 19 -22
v 16 20 -22
v 16 21 -22
v 16 22 -22
v 17 20 -22
v 17 21 -22
v 8 19 -23
v 8 22 -23
v 9 19 -23
v 9 22 -23
v 9 19 -24
v 9 22 -24
v 10 19 -24
v 10 22 -24
v 14 19 -24
v 14 20 -24
v 14 21 -24
v 14 22 -24
v 15 19 -24
v 15 20 -24
v 15 21 -24
v 15 22 -24
v 16 20 -24
v 16 21 -24
v 10 19 -25
v 10 22 -25
v 11 19 -25
v 11 22 -25
v 13 19 -25
v 13 20 -25
v 13 21 -25
v 13 22 -25
v 14 19 -25
v 14 20 -25
v 14 21 -25
v 14 22 -25
v 15 20 -25
v 15 21 -25
v 11 19 -27
v 11 22 -27
v 12 19 -27
v 12 22 -27
v 13 20 -27
v 13 21 -27
v 14 20 -27
v 14 21 -27
v 12 19 -28
v 12 22 -28
v 13 19 -28
v 13 22 -28
v -7 19 30
v -4 19 30
v 12 19 -1
v 13 19 -1
v 11 19 -2
v 12 19 -2
v 10 19 -4
v 11 19 -4
v 12 19 -4
v 13 19 -4
v 14 19 -4
v 9 19 -5
v 10 19 -5
v 13 19 -5
v 14 19 -5
v 15 19 -5
v 8 19 -6
v 9 19 -6
v 6 19 -7
v 8 19 -7
v 14 19 -7
v 15 19 -7
v 16 19 -7
v 4 19 -8
v 6 19 -8
v 1 19 -9
v 4 19 -9
v 15 19 -9
v 16 19 -9
v 17 19 -9
v -11 19 -10
v -7 19 -10
v -4 19 -10
v 1 19 -10
v -11 19 -19
v -7 19 -19
v -4 19 -19
v 1 19 -19
v 1 19 -20
v 4 19 -20
v 15 19 -20
v 16 19 -20
v 17 19 -20
v -7 19 -21
v -4 19 -21
v 4 19 -21
v 6 19 -21
v 6 19 -22
v 8 19 -22
v 14 19 -22
v 15 19 -22
v 16 19 -22
v 8 19 -23
v 9 19 -23
v 9 19 -24
v 10 19 -24
v 13 19 -24
v 14 19 -24
v 15 19 -24
v 10 19 -25
v 11 19 -25
v 12 19 -25
v 13 19 -25
v 14 19 -25
v 11 19 -27
v 12 19 -27
v 12 19 -28
v 13 19 -28
v 13 20 -2
v 14 20 -2
v 13 20 -4
v 14 20 -4
v 15 20 -4
v 14 20 -5
v 15 20 -5
v 16 20 -5
v 15 20 -7
v 16 20 -7
v 17 20 -7
v 16 20 -9
v 17 20 -9
v 18 20 -9
v 16 20 -20
v 17 20 -20
v 18 20 -20
v 15 20 -22
v 16 20 -22
v 17 20 -22
v 14 20 -24
v 15 20 -24
v 16 20 -24
v 13 20 -25
v 14 20 -25
v 15 20 -25
v 13 20 -27
v 14 20 -27
v 13 21 -2
v 14 21 -2
v 13 21 -4
v 14 21 -4
v 15 21 -4
v 14 21 -5
v 15 21 -5
v 16 21 -5
v 15 21 -7
v 16 21 -7
v 17 21 -7
v 16 21 -9
v 17 21 -9
v 18 21 -9
v 16 21 -20
v 17 21 -20
v 18 21 -20
v 15 21 -22
v 16 21 -22
v 17 21 -22
v 14 21 -24
v 15 21 -24
v 16 21 -24
v 13 21 -25
v 14 21 -25
v 15 21 -25
v 13 21 -27
v 14 21 -27
v -7 22 30
v -4 22 30
v 12 22 -1
v 13 22 -1
v 11 22 -2
v 12 22 -2
v 10 22 -4
v 11 22 -4
v 12 22 -4
v 13 22 -4
v 14 22 -4
v 9 22 -5
v 10 22 -5
v 13 22 -5
v 14 22 -5
v 15 22 -5
v 8 22 -6
v 9 22 -6
v 6 22 -7
v 8 22 -7
v 14 22 -7
v 15 22 -7
v 16 22 -7
v 4 22 -8
v 6 22 -8
v 1 22 -9
v 4 22 -9
v 15 22 -9
v 16 22 -9
v 17 22 -9
v -11 22 -10
v -7 22 -10
v -4 22 -10
v 1 22 -10
v -11 22 -19
v -7 22 -19
v -4 22 -19
v 1 22 -19
v 1 22 -20
v 4 22 -20
v 15 22 -20
v 16 22 -20
v 17 22 -20
v -7 22 -21
v -4 22 -21
v 4 22 -21
v 6 22 -21
v 6 22 -22
v 8 22 -22
v 14 22 -22
v 15 22 -22
v 16 22 -22
v 8 22 -23
v 9 22 -23
v 9 22 -24
v 10 22 -24
v 13 22 -24
v 14 22 -24
v 15 22 -24
v 10 22 -25
v 11 22 -25
v 12 22 -25
v 13 22 -25
v 14 22 -25
v 11 22 -27
v 12 22 -27
v 12 22 -28
v 13 22 -28

# faces
f 3/4/1 2/4/1 1/4/1
f 4/4/1 2/4/1 3/4/1
f 9/1/1 6/1/1 5/1/1
f 10/1/1 6/1/1 9/1/1
f 11/1/1 8/1/1 7/1/1
f 12/1/1 8/1/1 11/1/1
f 17/4/1 14/4/1 13/4/1
f 18/4/1 14/4/1 17/4/1
f 19/4/1 16/4/1 15/4/1
f 20/4/1 16/4/1 19/4/1
f 25/4/1 22/4/1 21/4/1
f 26/4/1 22/4/1 25/4/1
f 27/4/1 24/4/1 23/4/1
f 28/4/1 24/4/1 27/4/1
f 33/4/1 30/4/1 29/4/1
f 34/4/1 30/4/1 33/4/1
f 35/4/1 32/4/1 31/4/1
f 36/4/1 32/4/1 35/4/1
f 41/4/1 38/4/1 37/4/1
f 42/4/1 38/4/1 41/4/1
f 43/4/1 40/4/1 39/4/1
f 44/4/1 40/4/1 43/4/1
f 49/4/1 46/4/1 45/4/1
f 50/4/1 46/4/1 49/4/1
f 51/4/1 48/4/1 47/4/1
f 52/4/1 48/4/1 51/4/1
f 57/4/1 54/4/1 53/4/1
f 58/4/1 54/4/1 57/4/1
f 59/4/1 56/4/1 55/4/1
f 60/4/1 56/4/1 59/4/1
f 65/4/1 62/4/1 61/4/1
f 66/4/1 62/4/1 65/4/1
f 67/4/1 64/4/1 63/4/1
f 68/4/1 64/4/1 67/4/1
f 73/3/1 70/3/1 69/3/1
f 74/3/1 70/3/1 73/3/1
f 75/3/1 72/3/1 71/3/1
f 76/3/1 72/3/1 75/3/1
f 77/1/2 78/1/2 81/1/2
f 81/1/2 78/1/2 82/1/2
f 79/1/2 80/1/2 83/1/2
f 83/1/2 80/1/2 84/1/2
f 85/3/2 86/3/2 89/3/2
f 89/3/2 86/3/2 90/3/2
f 87/3/2 88/3/2 91/3/2
f 91/3/2 88/3/2 92/3/2
f 85/3/2 89/3/2 93/3/2
f 92/3/2 88/3/2 96/3/2
f 93/3/2 94/3/2 97/3/2
f 85/3/2 93/3/2 97/3/2
f 97/3/2 94/3/2 98/3/2
f 95/3/2 96/3/2 99/3/2
f 96/3/2 88/3/2 100/3/2
f 99/3/2 96/3/2 100/3/2
f 101/3/2 102/3/2 106/3/2
f 106/3/2 102/3/2 107/3/2
f 103/3/2 104/3/2 108/3/2
f 108/3/2 104/3/2 109/3/2
f 105/2/2 106/2/2 111/2/2
f 111/2/2 106/2/2 112/2/2
f 109/2/2 110/2/2 115/2/2
f 115/2/2 110/2/2 116/2/2
f 112/3/2 113/3/2 117/3/2
f 117/3/2 113/3/2 118/3/2
f 114/3/2 115/3/2 119/3/2
f 119/3/2 115/3/2 120/3/2
f 121/3/2 122/3/2 126/3/2
f 126/3/2 122/3/2 127/3/2
f 123/3/2 124/3/2 128/3/2
f 128/3/2 124/3/2 129/3/2
f 125/2/2 126/2/2 131/2/2
f 131/2/2 126/2/2 132/2/2
f 129/2/2 130/2/2 135/2/2
f 135/2/2 130/2/2 136/2/2
f 132/3/2 133/3/2 137/3/2
f 137/3/2 133/3/2 138/3/2
f 134/3/2 135/3/2 139/3/2
f 139/3/2 135/3/2 140/3/2
f 141/3/2 142/3/2 146/3/2
f 146/3/2 142/3/2 147/3/2
f 143/3/2 144/3/2 148/3/2
f 148/3/2 144/3/2 149/3/2
f 145/2/2 146/2/2 151/2/2
f 151/2/2 146/2/2 152/2/2
f 149/2/2 150/2/2 155/2/2
f 155/2/2 150/2/2 156/2/2
f 152/3/2 153/3/2 157/3/2
f 157/3/2 153/3/2 158/3/2
f 154/3/2 155/3/2 159/3/2
f 159/3/2 155/3/2 160/3/2
f 161/3/2 162/3/2 164/3/2
f 164/3/2 162/3/2 165/3/2
f 163/2/2 164/2/2 167/2/2
f 167/2/2 164/2/2 168/2/2
f 165/2/2 166/2/2 169/2/2
f 169/2/2 166/2/2 170/2/2
f 168/3/2 169/3/2 171/3/2
f 171/3/2 169/3/2 172/3/2
f 173/2/2 174/2/2 175/2/2
f 175/2/2 174/2/2 176/2/2
f 179/1/3 178/1/3 177/1/3
f 180/1/3 178/1/3 179/1/3
f 183/3/3 182/3/3 181/3/3
f 184/3/3 182/3/3 183/3/3
f 187/4/3 186/4/3 185/4/3
f 188/4/3 186/4/3 187/4/3
f 191/2/3 190/2/3 189/2/3
f 192/2/3 190/2/3 191/2/3
f 195/4/3 194/4/3 193/4/3
f 196/4/3 194/4/3 195/4/3
f 201/3/3 198/3/3 197/3/3
f 202/3/3 198/3/3 201/3/3
f 203/3/3 200/3/3 199/3/3
f 204/3/3 200/3/3 203/3/3
f 205/2/3 203/2/3 202/2/3
f 206/2/3 203/2/3 205/2/3
f 209/4/3 208/4/3 207/4/3
f 210/4/3 208/4/3 209/4/3
f 215/3/3 212/3/3 211/3/3
f 216/3/3 212/3/3 215/3/3
f 217/3/3 214/3/3 213/3/3
f 218/3/3 214/3/3 217/3/3
f 219/2/3 217/2/3 216/2/3
f 220/2/3 217/2/3 219/2/3
f 223/4/3 222/4/3 221/4/3
f 224/4/3 222/4/3 223/4/3
f 227/4/3 226/4/3 225/4/3
f 228/4/3 226/4/3 227/4/3
f 233/3/3 230/3/3 229/3/3
f 234/3/3 230/3/3 233/3/3
f 235/3/3 232/3/3 231/3/3
f 236/3/3 232/3/3 235/3/3
f 237/2/3 235/2/3 234/2/3
f 238/2/3 235/2/3 237/2/3
f 241/4/3 240/4/3 239/4/3
f 242/4/3 240/4/3 241/4/3
f 245/4/3 244/4/3 243/4/3
f 246/4/3 244/4/3 245/4/3
f 251/3/3 248/3/3 247/3/3
f 252/3/3 248/3/3 251/3/3
f 253/3/3 250/3/3 249/3/3
f 254/3/3 250/3/3 253/3/3
f 255/2/3 253/2/3 252/2/3
f 256/2/3 253/2/3 255/2/3
f 259/4/3 258/4/3 257/4/3
f 260/4/3 258/4/3 259/4/3
f 263/4/3 262/4/3 261/4/3
f 264/4/3 262/4/3 263/4/3
f 265/4/4 266/4/4 267/4/4
f 267/4/4 266/4/4 268/4/4
f 269/4/4 270/4/4 271/4/4
f 271/4/4 270/4/4 272/4/4
f 273/4/4 274/4/4 275/4/4
f 275/4/4 274/4/4 276/4/4
f 277/3/4 278/3/4 281/3/4
f 281/3/4 278/3/4 282/3/4
f 279/3/4 280/3/4 283/3/4
f 283/3/4 280/3/4 284/3/4
f 282/2/4 283/2/4 285/2/4
f 285/2/4 283/2/4 286/2/4
f 287/1/4 288/1/4 289/1/4
f 289/1/4 288/1/4 290/1/4
f 291/4/4 292/4/4 293/4/4
f 293/4/4 292/4/4 294/4/4
f 295/4/4 296/4/4 297/4/4
f 297/4/4 296/4/4 298/4/4
f 299/3/4 300/3/4 303/3/4
f 303/3/4 300/3/4 304/3/4
f 301/3/4 302/3/4 305/3/4
f 305/3/4 302/3/4 306/3/4
f 304/2/4 305/2/4 307/2/4
f 307/2/4 305/2/4 308/2/4
f 309/4/4 310/4/4 311/4/4
f 311/4/4 310/4/4 312/4/4
f 313/4/4 314/4/4 315/4/4
f 315/4/4 314/4/4 316/4/4
f 317/3/4 318/3/4 321/3/4
f 321/3/4 318/3/4 322/3/4
f 319/3/4 320/3/4 323/3/4
f 323/3/4 320/3/4 324/3/4
f 322/2/4 323/2/4 325/2/4
f 325/2/4 323/2/4 326/2/4
f 327/4/4 328/4/4 329/4/4
f 329/4/4 328/4/4 330/4/4
f 331/3/4 332/3/4 335/3/4
f 335/3/4 332/3/4 336/3/4
f 333/3/4 334/3/4 337/3/4
f 337/3/4 334/3/4 338/3/4
f 336/2/4 337/2/4 339/2/4
f 339/2/4 337/2/4 340/2/4
f 341/4/4 342/4/4 343/4/4
f 343/4/4 342/4/4 344/4/4
f 345/2/4 346/2/4 347/2/4
f 347/2/4 346/2/4 348/2/4
f 349/3/4 350/3/4 351/3/4
f 351/3/4 350/3/4 352/3/4
f 358/3/5 356/3/5 355/3/5
f 360/4/5 358/4/5 357/4/5
f 361/3/5 356/3/5 358/3/5
f 361/4/5 358/4/5 360/4/5
f 362/3/5 356/3/5 361/3/5
f 365/4/5 360/4/5 359/4/5
f 365/4/5 361/4/5 360/4/5
f 365/4/5 362/4/5 361/4/5
f 366/3/5 363/3/5 362/3/5
f 366/4/5 362/4/5 365/4/5
f 367/3/5 363/3/5 366/3/5
f 370/4/5 365/4/5 364/4/5
f 370/4/5 366/4/5 365/4/5
f 370/4/5 367/4/5 366/4/5
f 372/4/5 370/4/5 369/4/5
f 373/3/5 368/3/5 367/3/5
f 373/4/5 367/4/5 370/4/5
f 373/4/5 370/4/5 372/4/5
f 374/3/5 368/3/5 373/3/5
f 377/4/5 372/4/5 371/4/5
f 377/4/5 373/4/5 372/4/5
f 377/4/5 374/4/5 373/4/5
f 379/4/5 377/4/5 376/4/5
f 380/3/5 375/3/5 374/3/5
f 380/4/5 374/4/5 377/4/5
f 380/4/5 377/4/5 379/4/5
f 381/3/5 375/3/5 380/3/5
f 384/1/5 354/1/5 353/1/5
f 385/1/5 354/1/5 384/1/5
f 386/4/5 379/4/5 378/4/5
f 386/4/5 380/4/5 379/4/5
f 386/4/5 381/4/5 380/4/5
f 387/4/5 385/4/5 384/4/5
f 387/4/5 386/4/5 385/4/5
f 387/4/5 384/4/5 383/4/5
f 388/4/5 386/4/5 387/4/5
f 389/4/5 386/4/5 388/4/5
f 390/4/5 381/4/5 386/4/5
f 390/4/5 386/4/5 389/4/5
f 391/4/5 381/4/5 390/4/5
f 392/4/5 381/4/5 391/4/5
f 393/4/5 381/4/5 392/4/5
f 394/3/5 382/3/5 381/3/5
f 394/4/5 381/4/5 393/4/5
f 395/3/5 382/3/5 394/3/5
f 396/1/5 389/1/5 388/1/5
f 397/1/5 389/1/5 396/1/5
f 398/4/5 393/4/5 392/4/5
f 399/4/5 393/4/5 398/4/5
f 400/4/5 393/4/5 399/4/5
f 401/4/5 393/4/5 400/4/5
f 402/4/5 393/4/5 401/4/5
f 403/3/5 394/3/5 393/3/5
f 403/4/5 393/4/5 402/4/5
f 404/3/5 394/3/5 403/3/5
f 405/4/5 402/4/5 401/4/5
f 406/4/5 402/4/5 405/4/5
f 407/4/5 402/4/5 406/4/5
f 408/4/5 402/4/5 407/4/5
f 409/4/5 402/4/5 408/4/5
f 410/3/5 403/3/5 402/3/5
f 410/4/5 402/4/5 409/4/5
f 411/3/5 403/3/5 410/3/5
f 412/4/5 409/4/5 408/4/5
f 413/4/5 409/4/5 412/4/5
f 414/4/5 409/4/5 413/4/5
f 415/3/5 410/3/5 409/3/5
f 415/4/5 409/4/5 414/4/5
f 416/3/5 410/3/5 415/3/5
f 417/4/5 414/4/5 413/4/5
f 418/3/5 415/3/5 414/3/5
f 418/4/5 414/4/5 417/4/5
f 419/3/5 415/3/5 418/3/5
f 420/3/5 415/3/5 419/3/5
f 423/2/5 422/2/5 421/2/5
f 424/2/5 422/2/5 423/2/5
f 426/2/5 425/2/5 424/2/5
f 427/2/5 425/2/5 426/2/5
f 429/2/5 428/2/5 427/2/5
f 430/2/5 428/2/5 429/2/5
f 432/2/5 431/2/5 430/2/5
f 433/2/5 431/2/5 432/2/5
f 436/2/5 434/2/5 433/2/5
f 437/2/5 434/2/5 436/2/5
f 439/2/5 436/2/5 435/2/5
f 440/2/5 436/2/5 439/2/5
f 442/2/5 439/2/5 438/2/5
f 443/2/5 439/2/5 442/2/5
f 445/2/5 442/2/5 441/2/5
f 446/2/5 442/2/5 445/2/5
f 447/2/5 445/2/5 444/2/5
f 448/2/5 445/2/5 447/2/5
f 449/2/6 450/2/6 451/2/6
f 451/2/6 450/2/6 452/2/6
f 452/2/6 453/2/6 454/2/6
f 454/2/6 453/2/6 455/2/6
f 455/2/6 456/2/6 457/2/6
f 457/2/6 456/2/6 458/2/6
f 458/2/6 459/2/6 460/2/6
f 460/2/6 459/2/6 461/2/6
f 461/2/6 462/2/6 464/2/6
f 464/2/6 462/2/6 465/2/6
f 463/2/6 464/2/6 467/2/6
f 467/2/6 464/2/6 468/2/6
f 466/2/6 467/2/6 470/2/6
f 470/2/6 467/2/6 471/2/6
f 469/2/6 470/2/6 473/2/6
f 473/2/6 470/2/6 474/2/6
f 472/2/6 473/2/6 475/2/6
f 475/2/6 473/2/6 476/2/6
f 479/3/6 480/3/6 482/3/6
f 481/4/6 482/4/6 484/4/6
f 482/3/6 480/3/6 485/3/6
f 484/4/6 482/4/6 485/4/6
f 485/3/6 480/3/6 486/3/6
f 483/4/6 484/4/6 489/4/6
f 484/4/6 485/4/6 489/4/6
f 485/4/6 486/4/6 489/4/6
f 486/3/6 487/3/6 490/3/6
f 489/4/6 486/4/6 490/4/6
f 490/3/6 487/3/6 491/3/6
f 488/4/6 489/4/6 494/4/6
f 489/4/6 490/4/6 494/4/6
f 490/4/6 491/4/6 494/4/6
f 493/4/6 494/4/6 496/4/6
f 491/3/6 492/3/6 497/3/6
f 494/4/6 491/4/6 497/4/6
f 496/4/6 494/4/6 497/4/6
f 497/3/6 492/3/6 498/3/6
f 495/4/6 496/4/6 501/4/6
f 496/4/6 497/4/6 501/4/6
f 497/4/6 498/4/6 501/4/6
f 500/4/6 501/4/6 503/4/6
f 498/3/6 499/3/6 504/3/6
f 501/4/6 498/4/6 504/4/6
f 503/4/6 501/4/6 504/4/6
f 504/3/6 499/3/6 505/3/6
f 477/1/6 478/1/6 508/1/6
f 508/1/6 478/1/6 509/1/6
f 502/4/6 503/4/6 510/4/6
f 503/4/6 504/4/6 510/4/6
f 504/4/6 505/4/6 510/4/6
f 508/4/6 509/4/6 511/4/6
f 509/4/6 510/4/6 511/4/6
f 507/4/6 508/4/6 511/4/6
f 511/4/6 510/4/6 512/4/6
f 512/4/6 510/4/6 513/4/6
f 510/4/6 505/4/6 514/4/6
f 513/4/6 510/4/6 514/4/6
f 514/4/6 505/4/6 515/4/6
f 515/4/6 505/4/6 516/4/6
f 516/4/6 505/4/6 517/4/6
f 505/3/6 506/3/6 518/3/6
f 517/4/6 505/4/6 518/4/6
f 518/3/6 506/3/6 519/3/6
f 512/1/6 513/1/6 520/1/6
f 520/1/6 513/1/6 521/1/6
f 516/4/6 517/4/6 522/4/6
f 522/4/6 517/4/6 523/4/6
f 523/4/6 517/4/6 524/4/6
f 524/4/6 517/4/6 525/4/6
f 525/4/6 517/4/6 526/4/6
f 517/3/6 518/3/6 527/3/6
f 526/4/6 517/4/6 527/4/6
f 527/3/6 518/3/6 528/3/6
f 525/4/6 526/4/6 529/4/6
f 529/4/6 526/4/6 530/4/6
f 530/4/6 526/4/6 531/4/6
f 531/4/6 526/4/6 532/4/6
f 532/4/6 526/4/6 533/4/6
f 526/3/6 527/3/6 534/3/6
f 533/4/6 526/4/6 534/4/6
f 534/3/6 527/3/6 535/3/6
f 532/4/6 533/4/6 536/4/6
f 536/4/6 533/4/6 537/4/6
f 537/4/6 533/4/6 538/4/6
f 533/3/6 534/3/6 539/3/6
f 538/4/6 533/4/6 539/4/6
f 539/3/6 534/3/6 540/3/6
f 537/4/6 538/4/6 541/4/6
f 538/3/6 539/3/6 542/3/6
f 541/4/6 538/4/6 542/4/6
f 542/3/6 539/3/6 543/3/6
f 543/3/6 539/3/6 544/3/6
